<?xml version="1.0" standalone="no"?>
<!DOCTYPE svg PUBLIC "-//W3C//DTD SVG 20010904//EN"
 "http://www.w3.org/TR/2001/REC-SVG-20010904/DTD/svg10.dtd">
<svg version="1.0" xmlns="http://www.w3.org/2000/svg"
 width="788.000000pt" height="788.000000pt" viewBox="0 0 788.000000 788.000000"
 preserveAspectRatio="xMidYMid meet">
<metadata>
Created by potrace 1.14, written by Peter Selinger 2001-2017
</metadata>
<g transform="translate(0.000000,788.000000) scale(0.100000,-0.100000)"
fill="#000000" stroke="none">
<path d="M0 3943 l0 -1448 1447 0 1448 1 1 1447 1 1447 -1448 0 -1449 0 0
-1447z"/>
<path d="M3440 3945 c0 -933 4 -1445 10 -1446 6 -1 18 -2 28 -3 16 -1 17 74
18 1447 l1 1447 -28 0 -29 0 0 -1445z"/>
<path d="M6595 5209 c-9 -13 -186 -393 -295 -631 -25 -54 -48 -98 -52 -98 -4
0 -58 69 -122 152 l-115 153 44 12 c88 26 132 104 122 216 -7 78 -43 132 -105
159 -40 18 -69 21 -182 22 l-135 1 -1 -372 c-1 -205 1 -373 5 -374 8 -1 84 -1
97 0 7 1 10 56 10 163 0 92 4 163 10 164 5 2 32 -29 59 -68 28 -39 55 -76 60
-82 6 -6 37 -47 69 -91 33 -44 61 -82 63 -84 4 -6 202 -8 224 -3 10 2 35 43
59 98 l43 94 147 0 148 0 15 -32 c8 -18 27 -61 42 -95 15 -35 30 -63 34 -64 9
-1 94 -1 108 0 15 1 12 10 -55 151 -73 155 -121 258 -149 320 -14 30 -46 100
-72 155 -26 55 -52 111 -57 124 -8 20 -12 22 -19 10z m-568 -152 c20 -19 25
-35 26 -76 1 -75 -23 -96 -114 -101 -69 -4 -65 -10 -65 106 l0 106 64 -5 c51
-4 70 -10 89 -30z m633 -212 c52 -113 56 -105 -59 -105 -115 0 -109 -12 -54
110 17 36 36 83 43 104 l13 39 14 -44 c8 -24 27 -71 43 -104z"/>
<path d="M4002 4911 c3 -265 5 -289 24 -331 35 -76 101 -129 179 -145 17 -3
67 -6 111 -6 168 0 266 73 291 216 7 39 10 487 4 541 -1 7 -23 11 -58 10 l-58
-2 -1 -249 c-2 -282 -7 -318 -59 -364 -83 -73 -242 -50 -293 42 -17 32 -17 28
-22 527 l0 46 -61 0 -60 1 3 -286z"/>
<path d="M4784 4824 c0 -369 0 -374 21 -375 26 -1 334 -1 357 0 14 1 17 10 15
54 l-2 52 -130 1 c-71 1 -132 2 -135 3 -3 1 -5 143 -5 316 0 173 -2 316 -5
316 -3 1 -30 3 -60 4 l-55 3 -1 -374z"/>
<path d="M5140 5142 c0 -45 3 -53 18 -51 9 1 54 1 99 0 l83 -1 2 -322 3 -322
53 0 c30 -1 56 2 58 6 3 5 5 150 5 323 l-1 315 78 1 c42 1 87 0 100 -1 20 -1
22 3 22 52 l0 54 -260 0 -260 0 0 -54z"/>
<path d="M4162 4108 c-69 -10 -137 -56 -158 -106 -33 -80 -26 -162 18 -213 26
-30 106 -81 191 -123 94 -47 126 -103 96 -169 -36 -80 -183 -74 -235 10 -10
15 -19 29 -20 31 -2 3 -83 -35 -92 -43 -2 -2 4 -19 12 -39 32 -77 119 -129
215 -129 152 0 244 75 255 210 9 107 -37 165 -198 248 -122 62 -159 114 -126
176 32 59 151 59 192 0 14 -19 15 -19 61 2 26 12 47 26 47 31 0 5 -12 25 -26
44 -43 56 -137 84 -232 70z"/>
<path d="M5982 3733 l3 -388 35 1 c84 4 75 -27 74 259 l-1 255 67 -68 c36 -37
158 -155 271 -264 112 -108 207 -200 212 -204 4 -4 7 168 7 383 l0 390 -49 -1
c-27 -1 -52 -4 -55 -7 -4 -4 -7 -117 -7 -253 0 -135 -1 -246 -3 -246 -1 0 -63
60 -137 133 -209 204 -372 360 -397 380 l-22 19 2 -389z"/>
<path d="M5297 4085 c-105 -42 -173 -105 -221 -205 -28 -59 -31 -74 -31 -160
1 -85 4 -102 31 -160 61 -127 177 -212 313 -228 130 -15 246 24 338 116 68 67
103 143 110 238 14 187 -83 337 -261 403 -80 29 -201 28 -279 -4z m259 -111
c116 -55 178 -189 148 -322 -52 -232 -354 -286 -489 -87 -31 45 -37 64 -42
134 -11 136 65 249 197 292 39 13 142 4 186 -17z"/>
<path d="M7490 4099 c-140 -56 -175 -238 -64 -335 20 -18 77 -53 126 -79 95
-49 118 -66 137 -103 17 -33 4 -88 -29 -115 -56 -48 -174 -27 -207 37 -8 17
-17 32 -18 34 -5 6 -95 -42 -95 -50 0 -23 43 -90 72 -111 63 -47 166 -62 257
-37 51 14 115 71 136 122 19 48 22 129 5 172 -17 46 -80 97 -184 149 -106 54
-136 83 -136 133 0 49 35 83 91 89 37 4 51 1 75 -17 16 -12 33 -28 37 -35 6
-10 15 -10 44 2 60 25 65 33 46 66 -20 34 -56 62 -102 77 -41 14 -156 15 -191
1z"/>
<path d="M4505 4091 c-3 -2 -5 -26 -5 -52 l0 -47 68 -1 c37 0 82 0 99 0 l33
-1 -1 -316 c-1 -173 2 -318 5 -321 3 -3 31 -7 61 -7 l55 -1 0 40 c1 22 1 167
0 323 l0 282 28 1 c15 0 60 1 100 1 l73 0 -3 51 -3 52 -253 1 c-139 0 -255 -2
-257 -5z"/>
<path d="M6829 4095 c-1 0 -2 -168 -3 -372 -2 -257 1 -373 8 -374 6 -1 100 -2
209 -3 l197 -1 0 56 0 56 -132 -2 c-73 0 -140 1 -148 3 -13 3 -15 24 -15 120
l0 117 135 2 c74 0 141 2 148 2 8 1 12 19 12 54 l0 53 -134 -1 c-74 0 -140 2
-148 5 -10 4 -14 28 -14 93 0 86 1 87 26 88 14 0 79 2 145 2 l120 2 0 50 0 50
-202 0 c-112 0 -204 0 -204 0z"/>
<path d="M4000 2765 l0 -145 85 0 c66 0 85 3 85 14 0 18 -16 23 -72 21 -28 -1
-49 3 -50 9 -1 6 -2 58 -4 116 -2 137 -1 130 -24 130 -19 0 -20 -7 -20 -145z"/>
<path d="M4214 2802 c2 -120 14 -153 64 -174 33 -14 84 -13 112 2 42 22 53 56
57 172 5 109 5 110 -18 106 -22 -3 -23 -7 -25 -106 -1 -114 -10 -133 -67 -146
-21 -5 -33 -1 -52 18 -26 26 -27 33 -27 159 1 74 0 77 -22 77 -23 0 -23 -1
-22 -108z"/>
<path d="M4521 2888 c6 -12 27 -44 47 -71 l35 -48 -51 -75 c-47 -69 -49 -74
-28 -74 17 0 35 17 66 61 l43 61 38 -61 c31 -49 44 -61 65 -61 l26 0 -36 50
c-20 28 -36 55 -36 60 0 6 -4 10 -9 10 -25 0 -16 36 24 94 25 36 45 68 45 71
0 3 -9 5 -19 5 -12 0 -34 -21 -59 -60 l-40 -59 -39 59 c-28 44 -44 60 -61 60
-20 0 -21 -2 -11 -22z"/>
<path d="M4817 2903 c-2 -5 -3 -54 -2 -110 1 -78 6 -108 19 -128 33 -50 109
-64 163 -29 40 25 51 62 51 172 0 94 -1 102 -19 102 -23 0 -21 7 -23 -105 -1
-49 -6 -100 -10 -112 -9 -28 -67 -49 -95 -33 -35 18 -43 49 -43 151 0 89 -2
99 -18 99 -11 0 -21 -3 -23 -7z"/>
<path d="M5138 2903 c-2 -4 -4 -69 -4 -143 1 -132 1 -135 24 -138 21 -3 22 0
22 57 0 54 2 61 19 61 13 0 35 -22 62 -60 32 -45 48 -60 66 -60 24 0 23 2 -21
64 -43 60 -45 65 -26 71 56 18 57 124 2 142 -36 13 -139 17 -144 6z m137 -49
c27 -38 -7 -84 -62 -84 l-33 0 0 54 0 53 41 -3 c24 -2 46 -10 54 -20z"/>
<path d="M5370 2900 c0 -6 23 -47 51 -91 32 -51 50 -91 49 -107 -5 -65 0 -82
20 -82 18 0 20 7 20 56 0 50 6 66 50 139 28 46 50 86 50 89 0 3 -9 6 -20 6
-13 0 -32 -21 -61 -71 l-41 -71 -39 71 c-28 51 -45 71 -59 71 -11 0 -20 -5
-20 -10z"/>
<path d="M5796 2889 c-38 -30 -37 -90 3 -118 16 -12 34 -21 40 -21 5 0 22 -5
36 -12 18 -8 25 -19 25 -40 0 -39 -38 -57 -83 -39 -47 18 -50 18 -54 0 -5 -23
52 -44 108 -40 27 2 59 34 68 69 8 27 6 37 -13 59 -12 14 -42 33 -67 42 -35
13 -45 22 -47 43 -5 42 56 59 95 27 10 -9 14 -7 20 6 16 44 -83 62 -131 24z"/>
<path d="M6011 2808 c2 -144 32 -191 119 -190 90 1 113 38 115 184 1 105 0
109 -19 106 -20 -3 -21 -10 -22 -106 -1 -88 -4 -107 -20 -122 -33 -30 -69 -33
-100 -7 -26 23 -27 27 -28 128 -1 100 -2 104 -24 107 -22 3 -22 2 -21 -100z"/>
<path d="M6339 2909 c-1 -2 -3 -68 -4 -146 -1 -142 -1 -143 21 -143 21 0 23 4
20 43 -4 46 7 77 27 77 7 0 32 -27 55 -60 33 -46 49 -60 68 -60 l25 0 -23 32
c-13 18 -29 39 -36 46 -6 7 -17 22 -22 32 -8 15 -6 20 11 25 25 8 48 58 41 90
-7 41 -36 57 -112 63 -38 2 -71 3 -71 1z m125 -48 c41 -34 10 -91 -49 -91 -19
0 -36 5 -36 10 -4 30 -5 76 -2 86 5 14 69 10 87 -5z"/>
<path d="M6609 2883 c0 -16 -1 -80 -1 -143 -1 -110 0 -115 21 -118 19 -3 21 1
21 57 0 67 -2 66 76 61 20 -1 33 4 37 14 7 18 -13 25 -70 22 l-43 -2 0 48 c0
31 4 48 13 49 6 1 36 2 66 3 43 1 55 5 57 19 2 15 -8 17 -87 17 l-89 0 -1 -27z"/>
<path d="M6880 2828 c-18 -46 -38 -96 -45 -113 -42 -103 -41 -95 -15 -95 14 0
25 12 36 39 l15 39 65 -1 65 -2 11 -37 c9 -30 16 -38 34 -38 l24 0 -20 53
c-11 28 -25 61 -30 72 -5 11 -21 53 -36 93 -23 59 -32 72 -50 72 -18 0 -27
-14 -54 -82z m99 -93 c1 -5 -19 -10 -44 -10 -27 0 -45 5 -45 12 0 6 10 37 22
69 l22 57 22 -59 c13 -32 23 -63 23 -69z"/>
<path d="M7166 2890 c-42 -27 -60 -66 -60 -130 0 -66 21 -104 73 -128 50 -24
126 -17 152 14 18 22 -4 42 -26 24 -9 -7 -37 -13 -62 -13 -38 0 -50 5 -70 27
-48 56 -28 162 35 184 30 10 72 6 86 -8 15 -15 33 -12 40 5 15 40 -114 59
-168 25z"/>
<path d="M7409 2878 c-1 -32 -1 -126 0 -216 l1 -43 88 3 c69 2 87 6 87 18 0
12 -14 15 -67 14 l-68 -1 0 48 0 49 56 0 c47 0 55 3 52 17 -2 14 -14 18 -53
18 l-50 0 0 45 0 45 60 -2 c55 -1 74 6 75 30 0 4 -40 7 -90 7 l-90 0 -1 -32z"/>
<path d="M7675 2885 c-50 -49 -25 -112 55 -136 47 -14 61 -34 49 -66 -11 -31
-51 -39 -90 -19 -39 19 -63 6 -37 -20 37 -38 122 -33 157 10 31 38 13 108 -32
122 -50 15 -87 37 -87 53 1 39 23 48 99 39 33 -4 37 16 6 30 -44 20 -93 15
-120 -13z"/>
</g>
</svg>
